<svg width="112" height="67" viewBox="0 0 112 67" fill="none" xmlns="http://www.w3.org/2000/svg">
<g filter="url(#filter0_d_2262_479)">
<path d="M17.0625 40.4688L7.03125 12.125C6.28125 10 5.625 8.9375 5.0625 8.9375C4.8125 8.9375 4.52083 8.96875 4.1875 9.03125C3.85417 9.09375 3.58333 8.97917 3.375 8.6875C3.16667 8.39583 3.0625 8.03125 3.0625 7.59375C3.0625 7.15625 3.23958 6.70833 3.59375 6.25C3.94792 5.79167 4.39583 5.39583 4.9375 5.0625C6.14583 4.29167 7.19792 3.90625 8.09375 3.90625C9.01042 3.90625 9.6875 3.92708 10.125 3.96875C10.5625 4.01042 10.9792 4.15625 11.375 4.40625C12.1667 4.92708 12.8333 6.10417 13.375 7.9375L21.4062 35.125C23.3854 29.2917 24.6667 25.4375 25.25 23.5625C27.3125 16.6042 28.6875 11.4583 29.375 8.125C29.5208 7.375 30.2083 6.73958 31.4375 6.21875C32.3958 5.82292 33.2083 5.625 33.875 5.625C34.5417 5.625 34.9792 5.67708 35.1875 5.78125C35.4167 5.86458 35.5833 6.03125 35.6875 6.28125C35.9375 6.78125 36.125 7.38542 36.25 8.09375L44.5625 35.3438C46.125 31.5312 47.1875 28.8542 47.75 27.3125L49.375 22.75C51.1042 17.7708 51.9688 13.8854 51.9688 11.0938C51.9688 9.11458 51.0104 8.01042 49.0938 7.78125C48.8854 7.44792 48.7812 7.10417 48.7812 6.75C48.7812 6.375 48.9583 6.01042 49.3125 5.65625C49.6667 5.28125 50.125 4.95833 50.6875 4.6875C51.8125 4.16667 52.9479 3.90625 54.0938 3.90625C55.2604 3.90625 56.1562 3.96875 56.7812 4.09375C57.4062 4.21875 57.9062 4.4375 58.2812 4.75C58.9896 5.375 59.3438 6.3125 59.3438 7.5625C59.3438 8.79167 59.2083 10.0417 58.9375 11.3125C58.6667 12.5625 58.3021 13.9375 57.8438 15.4375C57.3854 16.9375 56.8542 18.5104 56.25 20.1562C53.9792 26.1979 52.3229 30.3438 51.2812 32.5938L49 37.3438C48.5417 38.2604 48.1875 38.9271 47.9375 39.3438L47.1562 40.5625C46.2812 41.9167 45.25 42.5938 44.0625 42.5938C42.7708 42.5938 41.7083 42.25 40.875 41.5625C40.5417 41.2708 40.3021 40.9062 40.1562 40.4688L32.4062 18.0938C30.3229 24.6146 29 28.6979 28.4375 30.3438C26.7292 35.1354 25.6979 37.8958 25.3438 38.625C24.9896 39.3333 24.6771 39.9167 24.4062 40.375C24.1354 40.8125 23.8333 41.1875 23.5 41.5C22.75 42.2292 21.9271 42.5938 21.0312 42.5938C19.7812 42.5938 18.7083 42.2292 17.8125 41.5C17.4792 41.2292 17.2292 40.8854 17.0625 40.4688Z" fill="black"/>
<path d="M90.5938 37.875C87.3229 41.0417 83.6979 42.625 79.7188 42.625C75.4479 42.625 71.9792 41.1667 69.3125 38.25C66.375 35.0417 64.9062 30.6146 64.9062 24.9688C64.9062 18.6354 66.9167 13.4792 70.9375 9.5C72.7708 7.6875 74.8438 6.3125 77.1562 5.375C79.4896 4.41667 81.9062 3.9375 84.4062 3.9375C86.9271 3.9375 89.375 4.35417 91.75 5.1875C92.6042 4.29167 93.6354 3.84375 94.8438 3.84375C95.8021 3.84375 96.4792 4.22917 96.875 5C97.3333 5.85417 97.5625 7.33333 97.5625 9.4375V46.0625C97.5625 48.625 97.6771 50.25 97.9062 50.9375C98.1354 51.625 98.4167 52.0833 98.75 52.3125C99.0833 52.5625 99.4688 52.6875 99.9062 52.6875C100.552 52.6875 101.073 52.6146 101.469 52.4688C101.885 52.3229 102.156 52.25 102.281 52.25C102.406 52.2708 102.521 52.3229 102.625 52.4062C102.938 52.6354 103.094 52.9375 103.094 53.3125C103.094 53.6875 102.979 54.0938 102.75 54.5312C102.521 54.9688 102.135 55.4062 101.594 55.8438C101.073 56.3021 100.469 56.6875 99.7812 57C98.3021 57.7083 96.8438 58.0625 95.4062 58.0625C93.9688 58.0625 92.8021 57.5833 91.9062 56.625C91.0312 55.6667 90.5938 54.1562 90.5938 52.0938V37.875ZM90.5938 11.75C88.5312 9.875 86.0521 8.9375 83.1562 8.9375C79.9062 8.9375 77.2708 10.1354 75.25 12.5312C73.0833 15.0938 72 18.5833 72 23C72 27.6667 72.9479 31.1875 74.8438 33.5625C76.5521 35.6875 78.9583 36.75 82.0625 36.75C85.1667 36.75 88.0104 35.4583 90.5938 32.875V11.75Z" fill="#3881D8"/>
<path d="M15.6484 40.9692L15.6585 40.9977L15.6698 41.0258C15.9267 41.6681 16.3256 42.2243 16.8656 42.6633C18.0516 43.6287 19.4667 44.0938 21.0312 44.0938C22.3783 44.0938 23.5583 43.5316 24.5359 42.5849C24.9725 42.1738 25.3525 41.6962 25.6816 41.1645L25.6898 41.1514L25.6976 41.1381C25.9926 40.6389 26.3223 40.022 26.6854 39.2958L26.6892 39.2881L26.693 39.2804C27.0933 38.4562 28.1601 35.5886 29.8504 30.8475L29.8537 30.8382L29.8569 30.8289C30.2884 29.5662 31.1577 26.8996 32.462 22.8379L38.7363 40.9524C38.9633 41.6281 39.3472 42.2189 39.8872 42.6914L39.9036 42.7057L39.9204 42.7196C41.0726 43.6701 42.4935 44.0938 44.0625 44.0938C45.9324 44.0938 47.3742 42.989 48.4161 41.3766L48.4191 41.372L49.2003 40.1532L49.2123 40.1345L49.2237 40.1155C49.5051 39.6466 49.8806 38.9367 50.3416 38.0146L50.347 38.0039L50.3521 37.9931L52.6334 33.2431L52.638 33.2336L52.6425 33.2239C53.7104 30.9171 55.3844 26.7226 57.6541 20.684L57.6541 20.684L57.6581 20.6732C58.2707 19.0043 58.811 17.4051 59.2783 15.8758C59.7462 14.3446 60.1221 12.9286 60.4035 11.6301L60.4046 11.6252C60.696 10.2574 60.8438 8.90255 60.8438 7.5625C60.8438 6.02918 60.4007 4.61964 59.2737 3.62524L59.2578 3.61123L59.2415 3.59767C58.6247 3.08364 57.8729 2.78238 57.0754 2.62288C56.3047 2.46874 55.2923 2.40625 54.0938 2.40625C52.7129 2.40625 51.3634 2.72163 50.0573 3.3263L50.047 3.33107L50.0368 3.336C49.3496 3.66684 48.7371 4.08536 48.2364 4.61108C47.7056 5.14745 47.2812 5.86631 47.2812 6.75C47.2812 7.41556 47.4813 8.03155 47.8218 8.57625L48.2024 9.18537L48.9157 9.27064C49.625 9.35546 49.952 9.5741 50.1172 9.76446C50.287 9.96016 50.4688 10.3368 50.4688 11.0938C50.4688 13.628 49.6726 17.3196 47.96 22.2521C47.9594 22.254 47.9587 22.256 47.958 22.2579L46.3409 26.7984C46.3402 26.8002 46.3395 26.802 46.3389 26.8039C46.0013 27.7286 45.4768 29.0793 44.7632 30.8606L37.7104 7.74015C37.5695 6.97981 37.3559 6.27564 37.049 5.65045C36.8078 5.1058 36.383 4.64397 35.7733 4.39953C35.4565 4.2588 35.1242 4.2036 34.8804 4.17458C34.5812 4.13896 34.2409 4.125 33.875 4.125C32.9336 4.125 31.9148 4.39869 30.8649 4.83236L30.8648 4.8323L30.8523 4.83762C29.5057 5.4082 28.2027 6.31964 27.9045 7.82913C27.2304 11.0951 25.8724 16.1841 23.8147 23.1265C23.4011 24.4555 22.6311 26.7959 21.5022 30.1549L14.8135 7.51255L14.8135 7.51248C14.2577 5.63133 13.4685 3.98803 12.1994 3.15312L12.1878 3.14546L12.176 3.13802C11.5946 2.7708 10.9541 2.54092 10.2672 2.47551C9.75499 2.42672 9.01854 2.40625 8.09375 2.40625C6.79152 2.40625 5.45524 2.95452 4.14072 3.79157C3.46443 4.20932 2.87962 4.72098 2.40682 5.33283C1.91538 5.96881 1.5625 6.73086 1.5625 7.59375C1.5625 8.27374 1.72744 8.96161 2.1544 9.55936C2.38423 9.88113 2.70884 10.187 3.14991 10.3736C3.59673 10.5627 4.05302 10.5826 4.46393 10.5056C4.53747 10.4918 4.60541 10.4805 4.66799 10.4713C4.6783 10.4873 4.68909 10.5044 4.70037 10.5226C4.94432 10.9176 5.25384 11.5959 5.61676 12.6242L5.6172 12.6255L15.6484 40.9692ZM79.7188 44.125C83.1072 44.125 86.2382 43.0831 89.0938 41.0706V52.0938C89.0938 54.3205 89.5584 56.2782 90.7985 57.6364L90.8045 57.6429L90.8105 57.6493C92.0188 58.942 93.5976 59.5625 95.4062 59.5625C97.093 59.5625 98.7672 59.1466 100.416 58.3593C101.21 57.9966 101.929 57.5423 102.561 56.9908C103.191 56.4783 103.728 55.8962 104.079 55.2273C104.386 54.6406 104.594 53.9945 104.594 53.3125C104.594 52.4512 104.204 51.7143 103.535 51.214C103.248 50.9905 102.907 50.8336 102.528 50.7704L102.405 50.75H102.281C102.004 50.75 101.739 50.8172 101.594 50.8563C101.409 50.9061 101.199 50.9739 100.973 51.053L100.962 51.057L100.95 51.0612C100.784 51.1224 100.459 51.1875 99.9062 51.1875C99.776 51.1875 99.7101 51.1576 99.65 51.1125L99.6253 51.094L99.6236 51.0928C99.6141 51.0816 99.5948 51.0567 99.5675 51.0124C99.5033 50.9077 99.4193 50.7332 99.3293 50.4632C99.2795 50.3137 99.2014 49.9008 99.1447 49.0976C99.0909 48.3341 99.0625 47.326 99.0625 46.0625V9.4375C99.0625 7.31851 98.847 5.51196 98.2031 4.30276C97.8877 3.69346 97.4281 3.17972 96.8124 2.82922C96.2011 2.48129 95.5237 2.34375 94.8438 2.34375C93.5498 2.34375 92.388 2.73716 91.3988 3.49213C89.1297 2.78927 86.7971 2.4375 84.4062 2.4375C81.7102 2.4375 79.1012 2.95509 76.5898 3.98606C74.089 5.00036 71.8515 6.48712 69.8829 8.4333L69.8824 8.43383C65.5416 12.7296 63.4062 18.2873 63.4062 24.9688C63.4062 30.8746 64.9473 35.7036 68.2062 39.2629C71.1816 42.5169 75.0652 44.125 79.7188 44.125ZM76.3954 13.4997L76.3966 13.4984C78.1205 11.4545 80.3296 10.4375 83.1562 10.4375C85.4648 10.4375 87.4231 11.1065 89.0938 12.4411V32.2376C86.8697 34.2997 84.5356 35.25 82.0625 35.25C79.3428 35.25 77.3963 34.3423 76.0145 32.6247C74.419 30.6247 73.5 27.4979 73.5 23C73.5 18.8244 74.5217 15.7158 76.3954 13.4997Z" stroke="white" stroke-width="3"/>
</g>
<defs>
<filter id="filter0_d_2262_479" x="0.0625" y="0.84375" width="111.031" height="65.2188" filterUnits="userSpaceOnUse" color-interpolation-filters="sRGB">
<feFlood flood-opacity="0" result="BackgroundImageFix"/>
<feColorMatrix in="SourceAlpha" type="matrix" values="0 0 0 0 0 0 0 0 0 0 0 0 0 0 0 0 0 0 127 0" result="hardAlpha"/>
<feOffset dx="4" dy="4"/>
<feGaussianBlur stdDeviation="0.5"/>
<feComposite in2="hardAlpha" operator="out"/>
<feColorMatrix type="matrix" values="0 0 0 0 0 0 0 0 0 0 0 0 0 0 0 0 0 0 0.25 0"/>
<feBlend mode="normal" in2="BackgroundImageFix" result="effect1_dropShadow_2262_479"/>
<feBlend mode="normal" in="SourceGraphic" in2="effect1_dropShadow_2262_479" result="shape"/>
</filter>
</defs>
</svg>
