<svg width="116" height="110" viewBox="0 0 116 110" fill="none" xmlns="http://www.w3.org/2000/svg">
<path d="M20.56 87.96L16.9 102H12.76L10.52 92.76L8.2 102H4.06L0.5 87.96H4.16L6.18 98.18L8.68 87.96H12.44L14.84 98.18L16.88 87.96H20.56ZM27.3552 102.16C26.2618 102.16 25.2752 101.927 24.3952 101.46C23.5285 100.993 22.8418 100.327 22.3352 99.46C21.8418 98.5933 21.5952 97.58 21.5952 96.42C21.5952 95.2733 21.8485 94.2667 22.3552 93.4C22.8618 92.52 23.5552 91.8467 24.4352 91.38C25.3152 90.9133 26.3018 90.68 27.3952 90.68C28.4885 90.68 29.4752 90.9133 30.3552 91.38C31.2352 91.8467 31.9285 92.52 32.4352 93.4C32.9418 94.2667 33.1952 95.2733 33.1952 96.42C33.1952 97.5667 32.9352 98.58 32.4152 99.46C31.9085 100.327 31.2085 100.993 30.3152 101.46C29.4352 101.927 28.4485 102.16 27.3552 102.16ZM27.3552 99.2C28.0085 99.2 28.5618 98.96 29.0152 98.48C29.4818 98 29.7152 97.3133 29.7152 96.42C29.7152 95.5267 29.4885 94.84 29.0352 94.36C28.5952 93.88 28.0485 93.64 27.3952 93.64C26.7285 93.64 26.1752 93.88 25.7352 94.36C25.2952 94.8267 25.0752 95.5133 25.0752 96.42C25.0752 97.3133 25.2885 98 25.7152 98.48C26.1552 98.96 26.7018 99.2 27.3552 99.2ZM38.4295 92.7C38.8295 92.0867 39.3295 91.6067 39.9295 91.26C40.5295 90.9 41.1962 90.72 41.9295 90.72V94.34H40.9895C40.1362 94.34 39.4962 94.5267 39.0695 94.9C38.6429 95.26 38.4295 95.9 38.4295 96.82V102H35.0095V90.84H38.4295V92.7ZM50.3842 102L46.9842 97.32V102H43.5642V87.2H46.9842V95.38L50.3642 90.84H54.5842L49.9442 96.44L54.6242 102H50.3842Z" fill="black"/>
<path d="M65.9275 104.4L64.1275 101.98C63.5942 102.087 63.0742 102.14 62.5675 102.14C61.2475 102.14 60.0342 101.833 58.9275 101.22C57.8342 100.607 56.9608 99.7533 56.3075 98.66C55.6675 97.5533 55.3475 96.3133 55.3475 94.94C55.3475 93.5667 55.6675 92.3333 56.3075 91.24C56.9608 90.1467 57.8342 89.2933 58.9275 88.68C60.0342 88.0667 61.2475 87.76 62.5675 87.76C63.8875 87.76 65.0942 88.0667 66.1875 88.68C67.2942 89.2933 68.1608 90.1467 68.7875 91.24C69.4275 92.3333 69.7475 93.5667 69.7475 94.94C69.7475 96.14 69.5008 97.24 69.0075 98.24C68.5275 99.2267 67.8542 100.047 66.9875 100.7L70.0675 104.4H65.9275ZM58.8475 94.94C58.8475 96.18 59.1808 97.1733 59.8475 97.92C60.5275 98.6533 61.4342 99.02 62.5675 99.02C63.6875 99.02 64.5808 98.6467 65.2475 97.9C65.9275 97.1533 66.2675 96.1667 66.2675 94.94C66.2675 93.7 65.9275 92.7133 65.2475 91.98C64.5808 91.2333 63.6875 90.86 62.5675 90.86C61.4342 90.86 60.5275 91.2267 59.8475 91.96C59.1808 92.6933 58.8475 93.6867 58.8475 94.94ZM82.7092 90.84V102H79.2892V100.48C78.9426 100.973 78.4692 101.373 77.8692 101.68C77.2826 101.973 76.6292 102.12 75.9092 102.12C75.0559 102.12 74.3026 101.933 73.6492 101.56C72.9959 101.173 72.4892 100.62 72.1292 99.9C71.7692 99.18 71.5892 98.3333 71.5892 97.36V90.84H74.9892V96.9C74.9892 97.6467 75.1826 98.2267 75.5692 98.64C75.9559 99.0533 76.4759 99.26 77.1292 99.26C77.7959 99.26 78.3226 99.0533 78.7092 98.64C79.0959 98.2267 79.2892 97.6467 79.2892 96.9V90.84H82.7092ZM95.6858 96.24C95.6858 96.56 95.6658 96.8933 95.6258 97.24H87.8858C87.9391 97.9333 88.1591 98.4667 88.5458 98.84C88.9458 99.2 89.4324 99.38 90.0058 99.38C90.8591 99.38 91.4524 99.02 91.7858 98.3H95.4258C95.2391 99.0333 94.8991 99.6933 94.4058 100.28C93.9258 100.867 93.3191 101.327 92.5858 101.66C91.8524 101.993 91.0324 102.16 90.1258 102.16C89.0324 102.16 88.0591 101.927 87.2058 101.46C86.3524 100.993 85.6858 100.327 85.2058 99.46C84.7258 98.5933 84.4858 97.58 84.4858 96.42C84.4858 95.26 84.7191 94.2467 85.1858 93.38C85.6658 92.5133 86.3324 91.8467 87.1858 91.38C88.0391 90.9133 89.0191 90.68 90.1258 90.68C91.2058 90.68 92.1658 90.9067 93.0058 91.36C93.8458 91.8133 94.4991 92.46 94.9658 93.3C95.4458 94.14 95.6858 95.12 95.6858 96.24ZM92.1858 95.34C92.1858 94.7533 91.9858 94.2867 91.5858 93.94C91.1858 93.5933 90.6858 93.42 90.0858 93.42C89.5124 93.42 89.0258 93.5867 88.6258 93.92C88.2391 94.2533 87.9991 94.7267 87.9058 95.34H92.1858ZM102.03 102.16C101.057 102.16 100.19 101.993 99.43 101.66C98.67 101.327 98.07 100.873 97.63 100.3C97.19 99.7133 96.9433 99.06 96.89 98.34H100.27C100.31 98.7267 100.49 99.04 100.81 99.28C101.13 99.52 101.523 99.64 101.99 99.64C102.417 99.64 102.743 99.56 102.97 99.4C103.21 99.2267 103.33 99.0067 103.33 98.74C103.33 98.42 103.163 98.1867 102.83 98.04C102.497 97.88 101.957 97.7067 101.21 97.52C100.41 97.3333 99.7433 97.14 99.21 96.94C98.6767 96.7267 98.2167 96.4 97.83 95.96C97.4433 95.5067 97.25 94.9 97.25 94.14C97.25 93.5 97.4233 92.92 97.77 92.4C98.13 91.8667 98.65 91.4467 99.33 91.14C100.023 90.8333 100.843 90.68 101.79 90.68C103.19 90.68 104.29 91.0267 105.09 91.72C105.903 92.4133 106.37 93.3333 106.49 94.48H103.33C103.277 94.0933 103.103 93.7867 102.81 93.56C102.53 93.3333 102.157 93.22 101.69 93.22C101.29 93.22 100.983 93.3 100.77 93.46C100.557 93.6067 100.45 93.8133 100.45 94.08C100.45 94.4 100.617 94.64 100.95 94.8C101.297 94.96 101.83 95.12 102.55 95.28C103.377 95.4933 104.05 95.7067 104.57 95.92C105.09 96.12 105.543 96.4533 105.93 96.92C106.33 97.3733 106.537 97.9867 106.55 98.76C106.55 99.4133 106.363 100 105.99 100.52C105.63 101.027 105.103 101.427 104.41 101.72C103.73 102.013 102.937 102.16 102.03 102.16ZM114.862 99.1V102H113.122C111.882 102 110.916 101.7 110.222 101.1C109.529 100.487 109.182 99.4933 109.182 98.12V93.68H107.822V90.84H109.182V88.12H112.602V90.84H114.842V93.68H112.602V98.16C112.602 98.4933 112.682 98.7333 112.842 98.88C113.002 99.0267 113.269 99.1 113.642 99.1H114.862Z" fill="#3881D8"/>
<path d="M19.9375 61.4688L9.90625 33.125C9.15625 31 8.5 29.9375 7.9375 29.9375C7.6875 29.9375 7.39583 29.9688 7.0625 30.0312C6.72917 30.0938 6.45833 29.9792 6.25 29.6875C6.04167 29.3958 5.9375 29.0312 5.9375 28.5938C5.9375 28.1562 6.11458 27.7083 6.46875 27.25C6.82292 26.7917 7.27083 26.3958 7.8125 26.0625C9.02083 25.2917 10.0729 24.9062 10.9688 24.9062C11.8854 24.9062 12.5625 24.9271 13 24.9688C13.4375 25.0104 13.8542 25.1562 14.25 25.4062C15.0417 25.9271 15.7083 27.1042 16.25 28.9375L24.2812 56.125C26.2604 50.2917 27.5417 46.4375 28.125 44.5625C30.1875 37.6042 31.5625 32.4583 32.25 29.125C32.3958 28.375 33.0833 27.7396 34.3125 27.2188C35.2708 26.8229 36.0833 26.625 36.75 26.625C37.4167 26.625 37.8542 26.6771 38.0625 26.7812C38.2917 26.8646 38.4583 27.0312 38.5625 27.2812C38.8125 27.7812 39 28.3854 39.125 29.0938L47.4375 56.3438C49 52.5312 50.0625 49.8542 50.625 48.3125L52.25 43.75C53.9792 38.7708 54.8438 34.8854 54.8438 32.0938C54.8438 30.1146 53.8854 29.0104 51.9688 28.7812C51.7604 28.4479 51.6562 28.1042 51.6562 27.75C51.6562 27.375 51.8333 27.0104 52.1875 26.6562C52.5417 26.2812 53 25.9583 53.5625 25.6875C54.6875 25.1667 55.8229 24.9062 56.9688 24.9062C58.1354 24.9062 59.0312 24.9688 59.6562 25.0938C60.2812 25.2188 60.7812 25.4375 61.1562 25.75C61.8646 26.375 62.2188 27.3125 62.2188 28.5625C62.2188 29.7917 62.0833 31.0417 61.8125 32.3125C61.5417 33.5625 61.1771 34.9375 60.7188 36.4375C60.2604 37.9375 59.7292 39.5104 59.125 41.1562C56.8542 47.1979 55.1979 51.3438 54.1562 53.5938L51.875 58.3438C51.4167 59.2604 51.0625 59.9271 50.8125 60.3438L50.0312 61.5625C49.1562 62.9167 48.125 63.5938 46.9375 63.5938C45.6458 63.5938 44.5833 63.25 43.75 62.5625C43.4167 62.2708 43.1771 61.9062 43.0312 61.4688L35.2812 39.0938C33.1979 45.6146 31.875 49.6979 31.3125 51.3438C29.6042 56.1354 28.5729 58.8958 28.2188 59.625C27.8646 60.3333 27.5521 60.9167 27.2812 61.375C27.0104 61.8125 26.7083 62.1875 26.375 62.5C25.625 63.2292 24.8021 63.5938 23.9062 63.5938C22.6562 63.5938 21.5833 63.2292 20.6875 62.5C20.3542 62.2292 20.1042 61.8854 19.9375 61.4688Z" fill="black"/>
<path d="M93.4688 58.875C90.1979 62.0417 86.5729 63.625 82.5938 63.625C78.3229 63.625 74.8542 62.1667 72.1875 59.25C69.25 56.0417 67.7812 51.6146 67.7812 45.9688C67.7812 39.6354 69.7917 34.4792 73.8125 30.5C75.6458 28.6875 77.7188 27.3125 80.0312 26.375C82.3646 25.4167 84.7812 24.9375 87.2812 24.9375C89.8021 24.9375 92.25 25.3542 94.625 26.1875C95.4792 25.2917 96.5104 24.8438 97.7188 24.8438C98.6771 24.8438 99.3542 25.2292 99.75 26C100.208 26.8542 100.438 28.3333 100.438 30.4375V67.0625C100.438 69.625 100.552 71.25 100.781 71.9375C101.01 72.625 101.292 73.0833 101.625 73.3125C101.958 73.5625 102.344 73.6875 102.781 73.6875C103.427 73.6875 103.948 73.6146 104.344 73.4688C104.76 73.3229 105.031 73.25 105.156 73.25C105.281 73.2708 105.396 73.3229 105.5 73.4062C105.812 73.6354 105.969 73.9375 105.969 74.3125C105.969 74.6875 105.854 75.0938 105.625 75.5312C105.396 75.9688 105.01 76.4062 104.469 76.8438C103.948 77.3021 103.344 77.6875 102.656 78C101.177 78.7083 99.7188 79.0625 98.2812 79.0625C96.8438 79.0625 95.6771 78.5833 94.7812 77.625C93.9062 76.6667 93.4688 75.1562 93.4688 73.0938V58.875ZM93.4688 32.75C91.4062 30.875 88.9271 29.9375 86.0312 29.9375C82.7812 29.9375 80.1458 31.1354 78.125 33.5312C75.9583 36.0938 74.875 39.5833 74.875 44C74.875 48.6667 75.8229 52.1875 77.7188 54.5625C79.4271 56.6875 81.8333 57.75 84.9375 57.75C88.0417 57.75 90.8854 56.4583 93.4688 53.875V32.75Z" fill="#3881D8"/>
</svg>
