<svg width="33" height="25" viewBox="0 0 33 25" fill="none" xmlns="http://www.w3.org/2000/svg">
<path d="M15.5647 3.125H6.99846C4.26221 3.125 2.88721 4.17708 2.88721 6.27083V22.9167H10.3122V19.0104C10.3122 18.5833 10.7797 18.2292 11.3435 18.2292C11.9072 18.2292 12.3747 18.5729 12.3747 19.0104V22.9167H19.6622V6.27083C19.6622 4.17708 18.3009 3.125 15.5647 3.125ZM14.7809 13.2812H7.97471C7.41096 13.2812 6.94346 12.9271 6.94346 12.5C6.94346 12.0729 7.41096 11.7187 7.97471 11.7187H14.7809C15.3447 11.7187 15.8122 12.0729 15.8122 12.5C15.8122 12.9271 15.3447 13.2812 14.7809 13.2812ZM14.7809 9.375H7.97471C7.41096 9.375 6.94346 9.02083 6.94346 8.59375C6.94346 8.16667 7.41096 7.8125 7.97471 7.8125H14.7809C15.3447 7.8125 15.8122 8.16667 15.8122 8.59375C15.8122 9.02083 15.3447 9.375 14.7809 9.375Z" fill="#757575"/>
<path d="M31.625 22.1365H28.5037V19.0115C29.81 18.6886 30.7588 17.7615 30.7588 16.6678V14.5845C30.7588 13.2199 29.2875 12.1053 27.4862 12.1053C25.685 12.1053 24.2138 13.2199 24.2138 14.5845V16.6678C24.2138 17.7511 25.1487 18.6678 26.4275 19.0011V22.1365H1.375C0.81125 22.1365 0.34375 22.4907 0.34375 22.9178C0.34375 23.3449 0.81125 23.699 1.375 23.699H27.4038C27.4312 23.699 27.445 23.7095 27.4725 23.7095C27.5 23.7095 27.5138 23.699 27.5413 23.699H31.625C32.1887 23.699 32.6562 23.3449 32.6562 22.9178C32.6562 22.4907 32.1887 22.1365 31.625 22.1365Z" fill="#757575"/>
</svg>
