<svg width="25" height="22" viewBox="0 0 25 22" fill="none" xmlns="http://www.w3.org/2000/svg">
<path d="M4.66231 1.16837C3.8245 1.39286 3.06055 1.83392 2.44724 2.44724C1.83392 3.06055 1.39286 3.8245 1.16837 4.66231" stroke="#757575" stroke-width="2" stroke-linecap="round"/>
<path d="M19.573 1.16837C20.4108 1.39286 21.1748 1.83392 21.7881 2.44724C22.4014 3.06055 22.8425 3.8245 23.067 4.66231" stroke="#757575" stroke-width="2" stroke-linecap="round"/>
<path fill-rule="evenodd" clip-rule="evenodd" d="M12.1177 22C17.5756 22 22.0001 17.5755 22.0001 12.1176C22.0001 6.65977 17.5756 2.23529 12.1177 2.23529C6.65983 2.23529 2.23535 6.65977 2.23535 12.1176C2.23535 17.5755 6.65983 22 12.1177 22ZM13.1177 7.17648C13.1177 6.6242 12.67 6.17648 12.1177 6.17648C11.5654 6.17648 11.1177 6.6242 11.1177 7.17648V11.8677C11.1177 12.558 11.6773 13.1177 12.3677 13.1177H15.8236C16.3759 13.1177 16.8236 12.6699 16.8236 12.1177C16.8236 11.5654 16.3759 11.1177 15.8236 11.1177H13.1177V7.17648Z" fill="#757575"/>
</svg>
