<svg width="19" height="21" viewBox="0 0 19 21" fill="none" xmlns="http://www.w3.org/2000/svg">
<path fill-rule="evenodd" clip-rule="evenodd" d="M9.44756 20.4819C11.1998 19.5905 18.0925 15.6634 18.0925 9.04625C18.0925 4.05015 14.0424 0 9.04626 0C4.05015 0 0 4.05015 0 9.04625C0 15.6634 6.89274 19.5905 8.64495 20.4819C8.89884 20.6111 9.19367 20.6111 9.44756 20.4819ZM9.04607 12.9232C11.1873 12.9232 12.923 11.1874 12.923 9.04624C12.923 6.90505 11.1873 5.16928 9.04607 5.16928C6.90489 5.16928 5.16911 6.90505 5.16911 9.04624C5.16911 11.1874 6.90489 12.9232 9.04607 12.9232Z" fill="#757575"/>
</svg>
