<svg width="30" height="22" viewBox="0 0 30 22" fill="none" xmlns="http://www.w3.org/2000/svg">
<path fill-rule="evenodd" clip-rule="evenodd" d="M0.585786 1.08579C0 1.67157 0 2.61438 0 4.5V17.5C0 19.3856 0 20.3284 0.585786 20.9142C1.17157 21.5 2.11438 21.5 4 21.5H26C27.8856 21.5 28.8284 21.5 29.4142 20.9142C30 20.3284 30 19.3856 30 17.5V4.5C30 2.61438 30 1.67157 29.4142 1.08579C28.8284 0.5 27.8856 0.5 26 0.5H4C2.11438 0.5 1.17157 0.5 0.585786 1.08579ZM4.5 4C3.94772 4 3.5 4.44772 3.5 5C3.5 5.55229 3.94772 6 4.5 6H7.5C8.05228 6 8.5 5.55229 8.5 5C8.5 4.44772 8.05228 4 7.5 4H4.5ZM21.5 17C21.5 16.4477 21.9477 16 22.5 16H25.5C26.0523 16 26.5 16.4477 26.5 17C26.5 17.5523 26.0523 18 25.5 18H22.5C21.9477 18 21.5 17.5523 21.5 17ZM17.5 11C17.5 12.3807 16.3807 13.5 15 13.5C13.6193 13.5 12.5 12.3807 12.5 11C12.5 9.61929 13.6193 8.5 15 8.5C16.3807 8.5 17.5 9.61929 17.5 11ZM19.5 11C19.5 13.4853 17.4853 15.5 15 15.5C12.5147 15.5 10.5 13.4853 10.5 11C10.5 8.51472 12.5147 6.5 15 6.5C17.4853 6.5 19.5 8.51472 19.5 11Z" fill="#757575"/>
</svg>
