<svg width="29" height="28" viewBox="0 0 29 28" fill="none" xmlns="http://www.w3.org/2000/svg">
<path d="M5.95427 8.51727C6.01692 7.95345 6.04824 7.67154 6.09051 7.42863C6.72548 3.77944 9.78244 1.04333 13.4794 0.815233C13.7255 0.800049 14.0092 0.800049 14.5764 0.800049V0.800049C15.1437 0.800049 15.4274 0.800049 15.6735 0.815233C19.3705 1.04333 22.4274 3.77944 23.0624 7.42863C23.1047 7.67154 23.136 7.95345 23.1986 8.51726L23.5897 12.0366C23.7008 13.0364 23.7563 13.5364 23.8723 14.0209C23.9848 14.4905 24.1396 14.949 24.3347 15.3907C24.5361 15.8465 24.7949 16.2778 25.3125 17.1405L26.7355 19.5122C27.5413 20.8552 27.9442 21.5266 27.6569 22.0339C27.3697 22.5412 26.5866 22.5412 25.0205 22.5412H4.13236C2.56625 22.5412 1.7832 22.5412 1.49597 22.0339C1.20874 21.5266 1.61161 20.8552 2.41737 19.5122L3.84043 17.1405C4.35803 16.2778 4.61683 15.8465 4.81818 15.3907C5.01333 14.949 5.16808 14.4905 5.28055 14.0209C5.39659 13.5364 5.45214 13.0364 5.56324 12.0366L5.95427 8.51727Z" stroke="black"/>
<path d="M10.0764 23.1714C10.3418 24.3271 10.9267 25.3484 11.7404 26.0768C12.554 26.8051 13.5509 27.2 14.5765 27.2C15.602 27.2 16.5989 26.8051 17.4126 26.0768C18.2262 25.3484 18.8111 24.3271 19.0765 23.1714" stroke="black" stroke-linecap="round"/>
</svg>
