<svg width="28" height="28" viewBox="0 0 28 28" fill="none" xmlns="http://www.w3.org/2000/svg">
<path fill-rule="evenodd" clip-rule="evenodd" d="M14.3986 23.1386C16.037 22.2991 22.1667 18.7624 22.1667 12.8334C22.1667 8.32303 18.5103 4.66669 14 4.66669C9.48969 4.66669 5.83334 8.32303 5.83334 12.8334C5.83334 18.7624 11.963 22.2991 13.6014 23.1386C13.8549 23.2685 14.1451 23.2685 14.3986 23.1386ZM14 16.3334C15.933 16.3334 17.5 14.7664 17.5 12.8334C17.5 10.9004 15.933 9.33335 14 9.33335C12.067 9.33335 10.5 10.9004 10.5 12.8334C10.5 14.7664 12.067 16.3334 14 16.3334Z" fill="white"/>
</svg>
