<svg width="20" height="20" viewBox="0 0 20 20" fill="none" xmlns="http://www.w3.org/2000/svg">
<path d="M7.89062 13.2812V11.1719C7.89062 10.913 8.10049 10.7031 8.35938 10.7031H11.6406C11.8995 10.7031 12.1094 10.913 12.1094 11.1719V13.5156M12.1094 6.71875V7.65625C12.1094 7.91513 11.8995 8.125 11.6406 8.125L8.35938 8.125C8.10049 8.125 7.89062 7.91513 7.89062 7.65625L7.89063 6.25M13.5146 7.88964L12.1104 6.48536C11.9597 6.33466 11.7553 6.25 11.5422 6.25H7.05357C6.60977 6.25 6.25 6.60977 6.25 7.05357V12.9464C6.25 13.3902 6.60977 13.75 7.05357 13.75H12.9464C13.3902 13.75 13.75 13.3902 13.75 12.9464V8.45785C13.75 8.24473 13.6653 8.04034 13.5146 7.88964Z" stroke="#3881D8" stroke-linecap="round"/>
<circle cx="10" cy="10" r="9" stroke="#3881D8" stroke-width="2"/>
</svg>
