<svg width="18" height="17" viewBox="0 0 18 17" fill="none" xmlns="http://www.w3.org/2000/svg">
<path d="M7.09021 3.53383C7.73228 1.93314 8.05332 1.1328 8.57489 1.02187C8.71204 0.992708 8.85379 0.992708 8.99093 1.02187C9.51251 1.1328 9.83355 1.93314 10.4756 3.53383C10.8408 4.44411 11.0233 4.89925 11.3649 5.20882C11.4608 5.29565 11.5648 5.37298 11.6755 5.43973C12.0704 5.6777 12.5632 5.72185 13.549 5.81013C15.2178 5.95958 16.0522 6.03431 16.307 6.51005C16.3597 6.60858 16.3956 6.71526 16.4131 6.82566C16.4976 7.35868 15.8842 7.91674 14.6574 9.03286L14.3167 9.3428C13.7432 9.86461 13.4564 10.1255 13.2905 10.4511C13.191 10.6464 13.1243 10.8568 13.0931 11.0737C13.041 11.4354 13.1249 11.8139 13.2929 12.5709L13.3529 12.8414C13.6541 14.1989 13.8047 14.8777 13.6167 15.2113C13.4478 15.511 13.1368 15.7029 12.7932 15.7193C12.4107 15.7375 11.8717 15.2983 10.7937 14.4199C10.0835 13.8412 9.72838 13.5519 9.33417 13.4388C8.97393 13.3355 8.5919 13.3355 8.23165 13.4388C7.83744 13.5519 7.48234 13.8412 6.77213 14.4199C5.69415 15.2983 5.15517 15.7375 4.77264 15.7193C4.42904 15.7029 4.118 15.511 3.94913 15.2113C3.76114 14.8777 3.91174 14.1989 4.21293 12.8414L4.27294 12.5709C4.44089 11.8139 4.52487 11.4354 4.47276 11.0737C4.4415 10.8568 4.37478 10.6464 4.27528 10.4511C4.10941 10.1255 3.82263 9.86461 3.24909 9.3428L2.90842 9.03286C1.68163 7.91674 1.06823 7.35868 1.15271 6.82566C1.1702 6.71526 1.20608 6.60858 1.25885 6.51005C1.51365 6.03431 2.34803 5.95958 4.01679 5.81013C5.00258 5.72185 5.49547 5.6777 5.89031 5.43973C6.00106 5.37298 6.10507 5.29565 6.20089 5.20882C6.5425 4.89925 6.72507 4.44411 7.09021 3.53383Z" fill="white" stroke="#222222" stroke-width="2"/>
</svg>
