<svg width="20" height="20" viewBox="0 0 20 20" fill="none" xmlns="http://www.w3.org/2000/svg">
<path d="M5.83411 3.33333L8.96745 2.55C9.09962 2.51687 9.23535 2.50008 9.37161 2.5H12.7199C13.0295 2.50001 13.333 2.58624 13.5963 2.74903C13.8596 2.91183 14.0724 3.14474 14.2108 3.42167L17.1274 9.255C17.2544 9.5091 17.3143 9.79143 17.3015 10.0752C17.2887 10.359 17.2036 10.6347 17.0542 10.8764C16.9049 11.118 16.6962 11.3174 16.4481 11.4557C16.2 11.594 15.9207 11.6667 15.6366 11.6667H11.6666H9.99995M5.83411 3.33333L5.83328 10.8333L8.65995 15.0733C8.99078 15.5692 9.16661 16.1508 9.16661 16.7467C9.16661 17.1625 9.50411 17.5 9.92078 17.5H10.0008C10.4428 17.5 10.8667 17.3244 11.1793 17.0118C11.4919 16.6993 11.6674 16.2754 11.6674 15.8333V11.6667M5.83411 3.33333H4.16661C3.72459 3.33333 3.30066 3.50893 2.9881 3.82149C2.67554 4.13405 2.49995 4.55797 2.49995 5V10C2.49995 10.442 2.67554 10.866 2.9881 11.1785C3.30066 11.4911 3.72459 11.6667 4.16661 11.6667H6.24995" stroke="#B91C1C" stroke-linecap="round" stroke-linejoin="round"/>
</svg>
