<svg width="24" height="24" viewBox="0 0 24 24" fill="none" xmlns="http://www.w3.org/2000/svg">
<path d="M7.00123 4L10.7612 3.06C10.9198 3.02025 11.0827 3.0001 11.2462 3H15.2642C15.6357 3.00001 15.9999 3.10349 16.3159 3.29884C16.6318 3.49419 16.8872 3.77369 17.0532 4.106L20.5532 11.106C20.7056 11.4109 20.7775 11.7497 20.7621 12.0902C20.7467 12.4308 20.6446 12.7617 20.4654 13.0516C20.2861 13.3416 20.0358 13.5809 19.738 13.7469C19.4403 13.9129 19.1051 14 18.7642 14H14.0002H12.0002M7.00123 4L7.00023 13L10.3922 18.088C10.7892 18.683 11.0002 19.381 11.0002 20.096C11.0002 20.595 11.4052 21 11.9052 21H12.0012C12.5317 21 13.0404 20.7893 13.4154 20.4142C13.7905 20.0391 14.0012 19.5304 14.0012 19V14M7.00123 4H5.00023C4.46979 4 3.96109 4.21071 3.58601 4.58579C3.21094 4.96086 3.00023 5.46957 3.00023 6V12C3.00023 12.5304 3.21094 13.0391 3.58601 13.4142C3.96109 13.7893 4.46979 14 5.00023 14H7.50023" stroke="#4C5055" stroke-width="2" stroke-linecap="round" stroke-linejoin="round"/>
</svg>
