<svg width="32" height="32" viewBox="0 0 32 32" fill="none" xmlns="http://www.w3.org/2000/svg">
<path fill-rule="evenodd" clip-rule="evenodd" d="M16 3C12.8815 3 10.2001 4.8618 9.00242 7.53028C8.84522 7.88054 8.7457 8.10119 8.66484 8.25565C8.65085 8.28237 8.63889 8.30411 8.62894 8.32155L8.60744 8.3233C8.48151 8.33268 8.30671 8.33333 8 8.33333C5.23858 8.33333 3 10.5719 3 13.3333C3 16.0948 5.23858 18.3333 8 18.3333H9.50491L11.5049 16.3333H8C6.34315 16.3333 5 14.9902 5 13.3333C5 11.6765 6.34315 10.3333 8 10.3333L8.03082 10.3333H8.03084C8.2956 10.3334 8.5465 10.3334 8.75596 10.3178C8.97891 10.3012 9.2515 10.2621 9.52328 10.1287C9.67856 10.0525 9.78599 9.98294 9.91911 9.87249C10.1711 9.66342 10.3293 9.38853 10.4367 9.18324C10.5492 8.96846 10.6735 8.69138 10.8149 8.37623L10.8271 8.3492C11.714 6.37307 13.6977 5 16 5C18.3023 5 20.286 6.37307 21.1729 8.3492L21.1851 8.37626C21.3265 8.69139 21.4508 8.96846 21.5633 9.18324C21.6707 9.38853 21.8289 9.66342 22.0809 9.87249C22.214 9.98294 22.3214 10.0525 22.4767 10.1287C22.7485 10.2621 23.0211 10.3012 23.244 10.3178C23.4535 10.3334 23.7044 10.3334 23.9692 10.3333L24 10.3333C25.6569 10.3333 27 11.6765 27 13.3333C27 14.9902 25.6569 16.3333 24 16.3333H20.4951L22.4951 18.3333H24C26.7614 18.3333 29 16.0948 29 13.3333C29 10.5719 26.7614 8.33333 24 8.33333C23.6933 8.33333 23.5185 8.33268 23.3926 8.3233L23.3711 8.32155C23.3611 8.30411 23.3491 8.28237 23.3352 8.25565C23.2543 8.10119 23.1548 7.88054 22.9976 7.53028C21.7999 4.8618 19.1185 3 16 3Z" fill="black"/>
<path d="M16.0001 16L15.293 15.2929L16.0001 14.5858L16.7072 15.2929L16.0001 16ZM17.0001 28C17.0001 28.5523 16.5524 29 16.0001 29C15.4478 29 15.0001 28.5523 15.0001 28L17.0001 28ZM9.95964 20.6262L15.293 15.2929L16.7072 16.7071L11.3739 22.0404L9.95964 20.6262ZM16.7072 15.2929L22.0405 20.6262L20.6263 22.0404L15.293 16.7071L16.7072 15.2929ZM17.0001 16L17.0001 28L15.0001 28L15.0001 16L17.0001 16Z" fill="black"/>
</svg>
