<svg width="40" height="40" viewBox="0 0 40 40" fill="none" xmlns="http://www.w3.org/2000/svg">
<path fill-rule="evenodd" clip-rule="evenodd" d="M20 35C28.2843 35 35 28.2843 35 20C35 11.7157 28.2843 5 20 5C11.7157 5 5 11.7157 5 20C5 28.2843 11.7157 35 20 35ZM26.1189 17.999C26.6707 17.3811 26.617 16.4328 25.999 15.8811C25.3811 15.3293 24.4328 15.383 23.8811 16.001L18.6524 21.8571L16.0235 19.4034C15.4179 18.8382 14.4687 18.8709 13.9034 19.4765C13.3382 20.0821 13.3709 21.0313 13.9765 21.5966L16.9792 24.399C18.0043 25.3559 19.6158 25.2825 20.5498 24.2364L26.1189 17.999Z" fill="#3881D8"/>
</svg>
